<svg id="Calque_1" data-name="Calque 1" xmlns="http://www.w3.org/2000/svg" viewBox="0 0 2233.41 1007.47"><defs><style>.cls-1{fill:#ecf0f1;}</style></defs><path class="cls-1" d="M567.71,597.38q-55.94,0-104-21.06a267.4,267.4,0,0,1-45.06-24,236.3,236.3,0,0,1-39.81-33.22A279.6,279.6,0,0,1,346,479.62a236,236,0,0,1-24.33-45.4,267.14,267.14,0,0,1,0-207.88A236.79,236.79,0,0,1,346,181a280.73,280.73,0,0,1,32.89-39.47,237.25,237.25,0,0,1,39.81-33.22,268.85,268.85,0,0,1,45.06-24q48-21,104-21.06a275.74,275.74,0,0,1,67.09,8.23,241.64,241.64,0,0,1,62.5,25.32A261.06,261.06,0,0,1,792,184.9l-93.41,61.18A154.5,154.5,0,0,0,567.71,175a151.56,151.56,0,0,0-60.53,12.17,155.2,155.2,0,0,0-82.56,82.56,156.71,156.71,0,0,0,0,121.05,155.2,155.2,0,0,0,82.56,82.56,151.39,151.39,0,0,0,60.53,12.17q39.46,0,72.36-17.11A150.17,150.17,0,0,0,694,421.73H551.92V309.89H836.77q-.67,17.76-1,29.93a155.4,155.4,0,0,1-1.65,20.07q-1.33,9.21-2.63,15.13a267.31,267.31,0,0,1-90.13,158.54,251.77,251.77,0,0,1-80.92,47.7A271.76,271.76,0,0,1,567.71,597.38Z" transform="translate(-300.62 -63.19)"/><path class="cls-1" d="M1007.81,476.33,960.44,584.88H838.74L1059.12,76.35h116.45l221,508.53H1274.25l-46.72-108.55ZM1117,223.71l-61.19,140.78h123Z" transform="translate(-300.62 -63.19)"/><path class="cls-1" d="M2012.35,76.35,2142,584.88h-115.8L1945.91,269.1,1834.07,584.88H1722.24L1610.4,271.08l-78.29,313.8H1416.33L1544,76.35h115.78l118.42,331.56L1895.92,76.35h116.43Z" transform="translate(-300.62 -63.19)"/><path class="cls-1" d="M2320.89,188.19v75.65h205.9V375.68h-205.9V473H2534V584.88h-325V76.35h325V188.19Z" transform="translate(-300.62 -63.19)"/><path class="cls-1" d="M838.75,1070.66V663.84h26.31v380.51h203.15v26.31Z" transform="translate(-300.62 -63.19)"/><path class="cls-1" d="M1433.9,1070.66V663.84h26.32v406.82Z" transform="translate(-300.62 -63.19)"/><path class="cls-1" d="M2013.82,1070.62H1834.88V663.8h150q37.89,0,66.31,13.68a108.15,108.15,0,0,1,18.43,11.32,79.93,79.93,0,0,1,17.1,17.89,92.92,92.92,0,0,1,12.36,25.79q4.74,15,4.74,35,0,17.35-3.94,30.53a98.74,98.74,0,0,1-10.27,23.41,80.42,80.42,0,0,1-14.47,17.64,119.24,119.24,0,0,1-16.59,12.63q24.21,7.37,41.58,20,40,30.52,40,83.69,0,26.32-9.47,47.36a101.21,101.21,0,0,1-27.37,36.83,113,113,0,0,1-40,23.17A152.59,152.59,0,0,1,2013.82,1070.62ZM1861.19,843.26h135.25c.71,0,5.35-.6,14-1.84s18-4.29,28.15-9.21q38.94-18.94,39-64.73,0-25.26-9.74-40.53a69.48,69.48,0,0,0-23.94-23.42,89.75,89.75,0,0,0-30.27-10.79,180,180,0,0,0-28.68-2.63H1861.19Zm0,201h152.63a119.63,119.63,0,0,0,40.52-6.57,93.72,93.72,0,0,0,31.57-18.43,83.82,83.82,0,0,0,20.53-28.15,86,86,0,0,0,7.37-35.78q0-39.48-29.48-62.63-15.27-11.58-37.62-17.37t-50.27-5.8H1861.19Z" transform="translate(-300.62 -63.19)"/></svg>